<?xml version="1.0" encoding="utf-8"?>
<!-- Generator: Adobe Illustrator 24.0.1, SVG Export Plug-In . SVG Version: 6.00 Build 0)  -->
<svg version="1.1" id="logo-55" xmlns="http://www.w3.org/2000/svg" xmlns:xlink="http://www.w3.org/1999/xlink" x="0px" y="0px"
	 viewBox="0 0 168 41" style="enable-background:new 0 0 168 41;" xml:space="preserve">
<style type="text/css">
	.st0{fill:#F97316;}
	.st1{fill:#3C2B1F;}
	.st2{font-family:'OpenSans-Bold';}
	.st3{font-size:22px;}
	.st4{fill:#666666;}
</style>
<g>
	<path class="st0" d="M60.9,19.7c5.8,1,11.4,2.7,16.8,4.9c-0.3-0.1-0.5-0.1-0.8-0.2c-7.5-2.2-15.1-3.5-22.9-4.6
		c-1.1-0.1-2.2-0.2-3.3-0.5c-1.4-0.3-2.3-1.1-2.9-2.4c-1.4-3.4-3-6.7-4.5-10.1c-0.8-1.7-1.7-3.2-3.4-4.2c0.1-0.1,0.1-0.1,0.2-0.2
		c0.6,0.4,1.3,0.9,1.9,1.2c0.3,0.2,0.6,0.3,0.9,0.3c9.2-0.6,18.4-0.2,27.6,0.5c3,0.2,6,0.6,9,0.8c0.1,0,0.2,0,0.3,0
		c0-0.1,0-0.1,0-0.2c-1.4-0.4-2.7-0.8-4.2-1c-4.5-0.6-9.1-1.3-13.6-1.6C53.7,1.9,45.2,1.8,36.8,2c-4,0.1-8,0.6-11.7,2.3
		c-3.3,1.5-6.2,3.6-8.5,6.3c-1.9,2.3-3.7,4.7-5.5,7c-0.3,0.3-0.7,0.7-1.1,0.8c-1.2,0.4-2.2,0.9-3,1.9c-0.1,0.2-0.4,0.3-0.7,0.3
		c-0.8,0.1-1.4,0.4-1.6,1.2c-0.3,1.1-0.6,2.1-0.9,3.2c-0.1,0.2,0,0.5-0.2,0.6c-1.2,0.9-1.5,2.2-1.8,3.5c0,0.1-0.1,0.2-0.1,0.3
		c0.1-1.4,0.1-2.8,1.1-4C3,25.3,3,25,3,24.8c0.3-1.3,0.6-2.7,1.1-3.9c0.2-0.4,0.8-0.8,1.2-1c0.6-0.4,1.2-0.6,1.8-0.9
		c0-0.1-0.1-0.2-0.1-0.3c-0.1,0-0.2-0.1-0.4-0.1c-1.3,0-1.4,0-1.2-1.3c0.1-0.9,0.3-1.9,0.5-2.8c0.3-1.1,1-1.8,2.2-2
		c1.6-0.2,3.3-0.3,4.9-0.4c0.6,0,1-0.2,1.4-0.7c2.6-3,5.4-5.6,8.9-7.5c2.8-1.5,5.9-2.2,9-2.6C39.9,0.5,47.4,0.8,55,1.1
		c4.7,0.2,9.3,0.5,14,0.9c5.5,0.5,11,1.2,16,3.8c3.4,1.8,6.7,3.9,9.9,6.1c3.6,2.4,7,5.1,10.5,7.6c0.2,0.1,0.4,0.3,0.7,0.6
		c-0.5,0.1-0.8,0.3-1.1,0.3c-8,0-16,0-24-0.1c-6.4-0.1-12.8-0.5-19.2-0.7C61.5,19.7,61.2,19.7,60.9,19.7z M12.8,13.3
		c0-0.1,0-0.1-0.1-0.2c-1.1,0.2-2.2,0.3-3.2,0.5c-0.2,0-0.5,0.2-0.6,0.4c-0.5,0.9-0.1,2.6,0.9,3.3C10.8,16,11.8,14.7,12.8,13.3z"/>
	<path class="st0" d="M33.9,19.7c-7.1-0.5-14-0.9-20.9-1.4c-0.1-1.3,0.3-2.4,1-3.4c1.9-2.8,4.1-5.3,6.9-7.3c4.3-3,9-3.7,14.1-2.6
		c1.9,0.4,3.4,1.4,4.1,3.3c1.5,3.9,2.9,7.8,4.4,11.7c0.3,0.8,0.1,1.1-0.8,0.9c-0.6-0.1-1.2-0.2-1.8-0.4c-1-0.3-1.6-1-1.7-2.1
		c-0.3-1.9-1.4-3.1-3.1-3.9c-1.3-0.6-2.7-1.1-4.2-1.4c-1.5-0.4-2.2,0.3-2,1.8c0.3,2,1.5,3.4,3.2,4.3C33.3,19.4,33.5,19.5,33.9,19.7z
		"/>
	<path class="st0" d="M124.7,38.1c0.3-0.4,0.5-0.7,0.8-1c-0.3,1.5-0.3,1.6-1.8,1.6c-10.7,0-21.4,0-32.1,0c-2.4,0-4.8-0.3-7.2-0.5
		c1.8,0,3.7-0.1,5.5,0c1.4,0.1,2.3-0.3,2.8-1.6c0.5-1,1.1-2,1.7-3c0.5-0.9,1.3-1.3,2.4-1.3c8.1-0.3,16.2-0.1,24.2,0.4
		c1,0.1,1.7,0.5,2.1,1.3c0.3,0.6,0.6,1.3,0.9,1.9C124.3,36.5,124.4,37.2,124.7,38.1z"/>
	<path class="st0" d="M87.6,32.3c-0.2,1.9-1.6,3.3-3.2,3.5c-5.3,0.5-10.6,0.6-15.9,0.3c-4.1-0.2-6.2-1.9-7.1-5.9
		c-0.2-0.8-0.3-1.7-0.5-2.8C69.8,29,78.7,30.7,87.6,32.3z"/>
</g>
<text transform="matrix(1 0 0 1 105.4445 29.7788)" class="st1 st2 st3">YARD</text>
<text transform="matrix(1 0 0 1 2.9444 38.1677)" class="st1 st2 st3">CAR</text>
<rect x="-803" y="-880.1" class="st4" width="118" height="118"/>
</svg>
